<svg xmlns="http://www.w3.org/2000/svg" id="Layer_1" viewBox="0 0 456 121"><style>.st0{fill:url(#Fill-1_3_);} .st1{fill:url(#Clip-5_1_);} .st2{fill:url(#Clip-8_1_);} .st3{fill:#AADFFF;} .st4{fill:#1BAEF8;} .st5{fill:#28292D;} .st6{enable-background:new ;} .st7{fill:#28292D;stroke:#28292D;stroke-width:0.8;}</style><g id="Page-1_1_"><g id="logo"><g id="Group"><g id="Page-1"><linearGradient id="Fill-1_3_" x1="232.5" x2="232.6" y1="207.7" y2="207.1" gradientUnits="userSpaceOnUse" gradientTransform="matrix(119 0 0 -89.158 -27612 18575.158)"><stop offset="0" stop-color="#8ED4FF"/><stop offset="1" stop-color="#A1DCFF"/><stop offset="1" stop-color="#A1DCFF"/></linearGradient><path id="Fill-1" d="M59.5 119c33 0 59.5-26.6 59.5-59.5-.2-8-7-14.5-15-14.5-8.2 0-14.8 6.5-15 14.5 0 8.2-6.6 14.8-14.7 14.8-8.2 0-14.8-6.6-14.8-14.8 0-16.4-13.3-29.7-29.7-29.7C13.3 29.8 0 43 0 59.5c0 33 26.6 59.5 59.5 59.5z" class="st0"/><linearGradient id="Clip-5_1_" x1="232.5" x2="232.8" y1="207.6" y2="207.1" gradientUnits="userSpaceOnUse" gradientTransform="matrix(119 0 0 -89.158 -27612 18575.158)"><stop offset="0" stop-color="#44B4FF"/><stop offset="1" stop-color="#6DD0FE"/></linearGradient><path id="Clip-5" d="M119 59.6c0 32.8-26.6 59.4-59.5 59.4S0 92.4 0 59.6h.2C.2 43 13.5 29.8 30 29.8S59.5 43 59.5 59.4C59.6 76 73 89.2 89.3 89.2c16.2 0 29.6-13 29.7-29.4z" class="st1"/><linearGradient id="Clip-8_1_" x1="231.4" x2="231.4" y1="208.7" y2="207.7" gradientUnits="userSpaceOnUse" gradientTransform="matrix(75.158 0 0 -118.632 -17352.947 24764.262)"><stop offset="0" stop-color="#1AC5FB"/><stop offset="1" stop-color="#1C76F2"/></linearGradient><path id="Clip-8" d="M59.6 118.6C26.6 118.6 0 92 0 59.2 0 26.2 27.3 0 60.2 0c-8 .2-14.5 6.7-14.5 14.8s6.5 14.6 14.5 14.8c8.2 0 14.8 6.6 14.8 14.8 0 7-5 13-11.5 14.4-1.3.2-2.6.3-4 .3C43 59.3 30 72.6 30 89c0 14.4 10.4 26.5 24 29 2 .5 3.7.7 5.6.8z" class="st2"/><path id="Fill-10" d="M45.7 15c0 8 6.7 14.8 15 14.8s14.8-6.7 14.8-15S68.8 0 60.5 0 45.8 6.7 45.8 15z" class="st3"/><path id="Fill-12" d="M94.7 11c8 0 14.4 6.5 14.4 14.5S102.8 40 94.8 40s-14.4-6.5-14.4-14.5S86.8 11 94.7 11" class="st4"/></g><path id="Fill-1_1_" d="M159 65h33.3c3.8 0 6.8-3 6.8-6.8v-4.4h-40V65zm7-42.4h5.5c.7 0 1.2.6 1 1.3 0 .5 0 1-.2 1.7l-1 3.3H211c.5 0 1 .5 1 1v6c0 .6-.5 1-1 1h-43.2c-1.3 2.8-3.3 5.6-5.8 8.5h45.3c.6 0 1 .5 1 1v12.7c0 7.5-6 13.7-13.6 13.7h-42.4c-.6 0-1-.6-1-1.2V54.4c-2 1-5 2.8-6.7 3.4-.7.2-1.5-.3-1.5-1v-7c0-.6.4-1 1-1.2 2.6-1 5-2.2 7.4-4 2.5-2 4.8-4.6 6.7-7.4h-13.8c-.6 0-1-.5-1-1v-6c0-.6.4-1 1-1H162c.4-1.2.8-2.3 1-3.4.3-1 .4-2 .4-3h2.5v-.2zm-2.6 0H158c-.6 0-1-.5-1-1v-3.2H144c-.6 0-1-.5-1-1V11c0-.6.4-1 1-1H157V6c0-.5.4-1 1-1h6.8c.6 0 1 .5 1 1v4h23.3V6c0-.5.6-1 1.2-1h6.7c.5 0 1 .5 1 1v4h12.8c.6 0 1 .4 1 1v6.2c0 .6-.4 1-1 1H198v3.2c0 .6-.5 1-1 1H190c-.6 0-1-.4-1-1v-3h-23.3v4h-2.6v.2z" class="st5"/><path id="Fill-5" d="M275 17.5c0 3 .2 6.3.7 9.8L289 14.5c.8-.7 2-.2 2 .8v8.4c0 .3 0 .6-.4.8l-13.2 12.3c1.4 6 3.3 11 5.6 15.2 2.2 4 4.7 7 7.5 9.3.3.2.4.5.4 1v9.6c0 .8-1 1.3-2 .8-7-4.8-12.6-11.8-16.5-21.3-4.2-10-6.3-21.2-6.4-34 0-.6.6-1.2 1.2-1.2h6.5c.7 0 1.2.6 1.2 1.2M261 7v64.6c0 .6-.5 1-1 1h-7.3c-.7 0-1.2-.4-1.2-1V7c0-.5.5-1 1-1h7.3c.7 0 1.2.5 1.2 1M222 71V62c0-.3.2-.6.5-.8 3.8-2.6 7-6.4 9.6-11.6 3-6 4.6-12.6 4.6-19.7H223c-.5 0-1-.6-1-1.2v-7.2c0-.6.5-1 1-1h21.3c.6 0 1 .4 1 1V30c0 8.7-2 17-6 25-4 7.4-9.2 13-15.6 16.8-.7.5-1.7 0-1.7-1" class="st5"/><path id="Fill-9" d="M331.6 16c.7 0 1.3.6 1 1.3 0 .5 0 1-.2 1.2l-.7 2.4H365c.7 0 1.2.4 1.2 1v5.2c0 .6-.5 1-1 1H347V37h20c.6 0 1 .4 1 1v5.2c0 .6-.4 1-1 1h-18.3c1.6 3.5 4 6 7 8 3 1.5 6.7 2.4 11.3 2.5.6 0 1 .5 1 1v5c0 .6-.5 1-1 1-5.7-.6-10.3-2-14-3.7-4-2-7.2-4.7-9.5-8-2.2 3.4-5.3 6.2-9.2 8.2-4.2 2.3-9.2 3.5-15 3.6-.5 0-1-.5-1-1v-5c0-.6.5-1 1-1 4.8-.2 8.7-1.3 12-3.2 2.8-1.8 5-4.2 6.2-7.4h-18c-.7 0-1.2-.5-1.2-1v-5.3c0-.7.5-1.2 1-1.2H339v-8.6h-10c-1.2 2.8-2.4 5-3.6 6.6-.2.3-.5.4-1 .4H318c-1 0-1.5-1-1-1.8 1.5-2 3-4.7 4.4-7.8 1.5-3.2 2.5-6.2 3-9 .2-.5.7-1 1.2-1h6v.3zM370 7v6c0 .6-.5 1-1 1h-56v43c0 3.8 3 7 6.8 7h49c.7 0 1.2.4 1.2 1v6c0 .5-.5 1-1 1h-51.5C310 72 304 66 304 58.5V7c0-.5.5-1 1-1h64c.5 0 1 .5 1 1z" class="st5"/><g class="st6"><path d="M147.8 93c.4 0 1 0 1.4-.2h4.6c2 0 3.5.2 4.8.7s2.4 1.2 3.2 2.2c.8 1 1.4 2 1.8 3.4.4 1.4.6 2.8.6 4.4 0 1.4-.2 2.8-.5 4-.4 1.4-1 2.6-1.8 3.6s-2 1.8-3.4 2.5c-1.4.6-3 1-5 1H152c-.5 0-1 0-1.6-.2H149l-1.2-.2V93zm6.4 3.4H152v14.2H153.7c1 0 2-.2 2.8-.6.8-.4 1.4-1 1.8-1.6.5-.7.8-1.5 1-2.4l.2-2.7c0-.8 0-1.6-.2-2.5-.2-.8-.5-1.6-1-2.2-.3-.7-1-1.2-1.7-1.6s-1.6-.6-2.8-.6zM179 112.7c-.5.5-1.3 1-2.3 1.2-1 .2-2 .4-3.3.4-2.4 0-4.2-.7-5.3-2s-1.6-3.4-1.6-6c0-2.5.6-4.5 2-5.8 1.2-1.3 3-2 5.2-2 .8 0 1.5 0 2.2.3.7 0 1.4.4 2 1 .5.4 1 1 1.3 1.8.4.8.6 1.8.6 3v1.3l-.3 1.6h-9c0 1.3.4 2.2 1 2.8.6.6 1.5 1 3 1 .7 0 1.5 0 2-.4.7-.2 1.2-.5 1.6-.8l1 2.5zm-5.5-11c-1 0-1.8.3-2.3 1s-.8 1.3-1 2.3h5.7c0-1-.2-2-.6-2.5-.3-.5-1-.8-2-.8zM194.2 112.7c-.6.5-1.4 1-2.4 1.2-1 .2-2 .4-3.3.4-2.4 0-4.2-.7-5.3-2s-1.7-3.4-1.7-6c0-2.5.6-4.5 2-5.8 1.2-1.3 3-2 5.2-2 .8 0 1.5 0 2.2.3.6 0 1.3.4 1.8 1 .6.4 1 1 1.4 1.8.3.8.5 1.8.5 3v1.3l-.3 1.6h-9c0 1.3.4 2.2 1 2.8.6.6 1.5 1 3 1 .7 0 1.5 0 2-.4.7-.2 1.2-.5 1.6-.8l1.2 2.5zm-5.6-11c-1 0-1.8.3-2.3 1s-.8 1.3-1 2.3h5.7c0-1 0-2-.5-2.5-.3-.5-1-.8-2-.8zM197.4 99h3l.3 1.8c.6-.8 1.2-1.3 2-1.7.6-.3 1.5-.4 2.5-.4 2 0 3.3.6 4.2 1.8s1.4 3 1.4 5.7c0 1.4 0 2.5-.5 3.6-.3 1-.7 2-1.3 2.6s-1.3 1.3-2.2 1.6c-1 .4-1.8.6-3 .6h-1.4l-1.2-.5v6h-4l.2-21zm6.7 3c-.7 0-1.3 0-1.7.5-.4.4-.8 1-1 1.7v6.2l1 .5h1.2c1 0 2-.3 2.5-1 .6-1 .8-2.2.8-4 0-1.3-.2-2.3-.7-3s-1-1-2-1zM230.4 108.4c0-.6-.2-1.2-.7-1.6s-1-.8-1.8-1-1.6-.8-2.4-1-1.6-1-2.3-1.4-1.3-1-1.8-2-.7-1.6-.7-2.8c0-1 .2-2 .5-2.7.3-1 .8-1.5 1.5-2 .6-.5 1.4-1 2.2-1 1-.3 1.8-.5 3-.5 1 0 2.3 0 3.4.3 1 .2 2 .5 2.7 1L233 97c-.4-.3-1-.5-2-.8-1-.2-1.8-.3-3-.3-1 0-1.6.3-2 .7s-1 1-1 1.5.3 1 .8 1.5 1 .8 1.8 1c.7.4 1.5.8 2.3 1l2.3 1.4s1.3 1.2 1.8 2 .7 1.7.7 2.8-.2 2-.6 3c-.5.7-1 1.4-1.7 2-.7.4-1.5.8-2.4 1s-2 .5-3.2.5c-1.5 0-2.8 0-4-.4l-2.5-1 1.3-3.4 1 .4 1 .4 1.5.3h1.6c1.2 0 2.2 0 2.8-.5s1-1 1-1.8zM237 99h3l.5 1.8c.6-.8 1.2-1.3 2-1.7.6-.3 1.5-.4 2.5-.4 2 0 3.3.6 4.2 1.8 1 1.2 1.4 3 1.4 5.7 0 1.4 0 2.5-.4 3.6-.3 1-.7 2-1.3 2.6s-1.4 1.3-2.3 1.6c-1 .4-1.8.6-3 .6h-1.4l-1.2-.5v6h-3.8V99zm6.8 3c-.8 0-1.4 0-1.8.5-.4.4-.8 1-1 1.7v6.2l1 .5h1.2c1 0 2-.3 2.5-1 .6-1 .8-2.2.8-4 0-1.3-.2-2.3-.7-3s-1-1-2-1zM261.6 102.7l-1.7-.3c-.8 0-1.4.2-2 .6s-.7.8-.8 1.4v9.7h-4V99h3l.5 2c.4-.7 1-1.3 1.5-1.7.6-.4 1.3-.6 2-.6.5 0 1 0 1.8.3l-.4 3.7zM263.7 94.8c0-.6.2-1 .6-1.5s1-.6 1.8-.6 1.5.2 2 .6c.4.4.6 1 .6 1.5s-.2 1-.7 1.5-1.2.6-2 .6c-.7 0-1.3-.3-1.7-.7-.4-.5-.6-1-.6-1.5zm.5 4.2h4v15h-4V99zM281 114v-8.5c0-1.2 0-2-.4-2.6s-1-1-1.8-1c-.7 0-1.4.3-2 .7s-.8 1-1 1.6v9.7h-4V99h3.2l.4 2c.6-.6 1.2-1.2 2-1.7.7-.5 1.6-.7 2.8-.7.7 0 1.4 0 2 .3.6 0 1 .4 1.5 1s.7 1 1 1.8.2 1.8.2 3v9.2h-4zM301 114c0 2.2-.6 3.8-1.8 4.8-1.2 1-2.8 1.5-5 1.5-1.4 0-2.6 0-3.4-.3l-2-.6 1-3c.4 0 1 .3 1.5.4s1.4.3 2.3.3c1.4 0 2.3-.2 2.8-.8s.7-1.4.7-2.5v-1c-.7 1-2 1.4-3.7 1.4-2 0-3.4-.5-4.3-1.7-1-1.2-1.4-3-1.4-5.6 0-2.7.6-4.7 2-6s3-2.2 5.5-2.2c1.4 0 2.5 0 3.5.3l2.5.6V114zm-6.6-3c.8 0 1.3 0 1.8-.4.4-.3.7-1 1-1.5v-6.7c-.7-.3-1.5-.4-2.4-.4-1 0-1.8.3-2.3 1s-.8 2-.8 3.6c0 1.5.2 2.6.7 3.3.4.7 1 1 2 1zM323.8 105.2H316v8.8h-4V93h4v8.5h7.8V93h4v21h-4v-8.8zM343.5 112.7c-.6.5-1.4 1-2.4 1.2s-2 .4-3.2.4c-2.4 0-4.2-.7-5.3-2s-1.7-3.4-1.7-6c0-2.5.6-4.5 2-5.8s3-2 5.2-2c.8 0 1.5 0 2.2.3.7 0 1.4.4 2 1 .5.4 1 1 1.2 1.8s.5 1.8.5 3c0 .3 0 .8-.2 1.3s0 1-.2 1.6h-9c0 1.3.4 2.2 1 2.8.6.6 1.5 1 3 1 .7 0 1.5 0 2-.4.8-.2 1.2-.5 1.6-.8l1.3 2.5zm-5.6-11c-1 0-2 .3-2.4 1s-.8 1.3-1 2.3h5.7c0-1 0-2-.5-2.5-.4-.5-1-.8-2-.8zM346.6 100c.8-.5 1.8-.7 2.8-1s2.2-.3 3.5-.3c1 0 1.8 0 2.5.4.7.3 1.3.7 1.7 1.2l1 1.7.2 2v2.8c-.2 1-.2 1.8-.2 2.6v2.5s.3 1.5.6 2.2h-3.2l-.6-2c-.5.5-1 1-1.8 1.5s-1.6.7-2.7.7c-.7 0-1.3 0-2-.3s-1-.4-1.3-.8-.7-1-1-1.4l-.2-1.8c0-1 .2-1.7.6-2.3s1-1 1.8-1.5 1.7-.7 2.8-.8c1-.2 2.3-.2 3.6 0 0-1.2 0-2-.2-2.5-.3-.6-1-.8-2-.8-.8 0-1.6 0-2.5.2l-2 .6-1.4-3zm5 11c.8 0 1.4-.2 2-.5s.7-.7 1-1v-2c-.7-.2-1.3-.2-2 0s-1 0-1.4.2c-.4 0-.8.3-1 .6-.4.3-.5.6-.5 1 0 .6.2 1 .5 1.3.4.3.8.4 1.4.4zM365.6 109c0 .7 0 1.2.3 1.5s.4.5.8.5h.7l1-.4.3 3c-.3.3-.8.4-1.5.6s-1.3.2-2 .2c-1 0-2-.3-2.6-.8s-1-1.4-1-2.6V93h4v16zM369 99h2v-2.8l4-1V99h3.6v3.3H375v5.8c0 1 0 2 .2 2.3s.6.7 1.2.7h1l1-.5.7 3c-.4.3-1 .5-1.8.7-.7.2-1.5.3-2.2.3-1.4 0-2.4-.4-3-1-.7-.8-1-2-1-3.6v-7.7h-2V99zM390 114v-8.5c0-1.2 0-2-.4-2.6s-1-1-2-1c-.6 0-1.2.3-1.7.8-.7.5-1 1-1.2 1.7v9.6h-4V93h4v7.7c.6-.6 1.2-1 2-1.5s1.5-.6 2.6-.6c.8 0 1.4 0 2 .3.6 0 1 .4 1.5 1s.6 1 .8 1.8.3 1.8.3 3v9.2h-4zM408 113c-.7.5-1.4 1-2.3 1-1 .3-1.7.4-2.6.4-1 0-2-.2-3-.6s-1.4-1-2-1.6-.8-1.5-1-2.5-.3-2-.3-3.2c0-2.5.6-4.5 1.7-6s2.8-2 5-2c1 0 2 0 2.7.3l2 .7-1 3.2-1.4-.5-1.5-.2c-1 0-1.8.4-2.4 1s-.8 2-.8 3.5c0 .6 0 1.2.2 1.8 0 .5.3 1 .6 1.4l1 1 1.7.2c.7 0 1.2-.2 1.7-.4l1.2-.6.7 3zM410 100c1-.5 2-.7 3-1s2-.3 3.4-.3c1 0 2 0 2.6.4.7.3 1.3.7 1.7 1.2l1 1.7.2 2c0 1 0 2-.2 2.8v5.1s.2 1.5.5 2.2H419l-.6-2c-.5.5-1 1-1.8 1.5s-1.6.7-2.7.7c-.8 0-1.4 0-2-.3s-1-.4-1.4-.8-.7-1-1-1.4l-.2-1.8c0-1 .2-1.7.6-2.3s1-1 1.8-1.5 1.7-.7 2.8-.8c1-.2 2.3-.2 3.6 0 0-1.2 0-2-.2-2.5-.3-.6-1-.8-2-.8-.8 0-1.6 0-2.5.2l-2 .6-1.4-3zm5 11c1 0 1.5-.2 2-.5s.8-.7 1-1v-2c-.6-.2-1.2-.2-1.8 0s-1 0-1.5.2c-.4 0-.8.3-1 .6-.4.3-.5.6-.5 1 0 .6.2 1 .5 1.3.4.3.8.4 1.4.4zM433.4 102.7l-1.7-.3c-.7 0-1.3.2-1.8.6s-1 .8-1 1.4v9.7h-4V99h3l.6 2c.4-.7 1-1.3 1.5-1.7.7-.4 1.4-.6 2-.6.6 0 1.2 0 2 .3l-.6 3.7zM447.6 112.7c-.6.5-1.4 1-2.4 1.2s-2 .4-3.3.4c-2.5 0-4.3-.7-5.4-2s-1.7-3.4-1.7-6c0-2.5.5-4.5 1.8-5.8s3-2 5.3-2c1 0 1.6 0 2.3.3.7 0 1.4.4 2 1 .5.4 1 1 1.2 1.8s.5 1.8.5 3v1.3l-.3 1.6h-9c0 1.3.4 2.2 1 2.8.6.6 1.5 1 3 1 .7 0 1.5 0 2-.4.8-.2 1.2-.5 1.6-.8l1.3 2.5zm-5.5-11c-1 0-1.7.3-2.2 1s-.8 1.3-1 2.3h5.7c0-1 0-2-.5-2.5-.4-.5-1-.8-2-.8z" class="st5"/></g><path id="Fill-1_2_" d="M419.4 65.4c7 0 6-3.5 6.3-11V42.5c0-.2 0-.4.3-.6l12.6-8.5h-32.3c-.4 0-.7-.3-.7-.7v-5.6c0-.4.3-.7.7-.7H449c.4 0 .7.3.7.7v6.2c0 .2 0 .4-.3.6l-16 11V59c0 10.5-5.3 13.4-12.2 13.4h-8.5c-.4 0-.7-.4-.7-.8V66c0-.5.4-.8.8-.8l6.6.2zm-34.7-46.6h4.6c.3 0 .5.2.7.5.5 1.3 1 2.4 1.8 5.3 1 3.8 1 5 1 7.2 0 .4-.2.7-.6.7-1.2 0-3.6 0-5 .2-.2 0-.6-.3-.6-.6-.6-5.6-2-9.4-2.6-12.3 0-.5.3-1 .7-1zM421 5h7.7c.4 0 .7.3.7.7V12h22.8c.4 0 .7.3.7.7v5.6c0 .4-.4.7-.8.7h-50.8v15.6C401 53 395.4 63.3 385 73c-.3.4-1 0-1-.5v-9-.5c6-6.4 6.5-8.6 9-16.5-.6.4-1.5 1.2-4 2.6l-4 2.4c-.6.3-1.2 0-1.2-.6V44c0-.3.2-.5.4-.6 4-2 4.5-2.5 9.4-5.8V12.7c0-.4.3-.7.7-.7H420V5.5c.3-.3.6-.6 1-.6z" class="st7"/></g></g></g></svg>